<svg xmlns="http://www.w3.org/2000/svg" xmlns:xlink="http://www.w3.org/1999/xlink" width="988.4483" height="338.6837" viewBox="0 0 988.4483 338.6837"><defs><style>.a{fill:none;}.b{clip-path:url(#a);}</style><clipPath id="a" transform="translate(-483.4079 -370.6332)"><rect class="a" width="1920" height="1080"/></clipPath></defs><title>Final_logos2</title><g class="b"><path d="M624.0869,573.9082h21.086V552.4943a21.0985,21.0985,0,0,1,20.754-20.755h21.415v-21.086a20.6706,20.6706,0,0,1,20.756-20.7561h106.744A169.2606,169.2606,0,0,0,653.08,370.6332c-93.567,0-169.672,75.775-169.672,169.342a169.5452,169.5452,0,0,0,119.923,162.093V594.6642a20.67,20.67,0,0,1,20.756-20.756" transform="translate(-483.4079 -370.6332)"/><path d="M703.8154,510.6528v21.086h118.276a161.76,161.76,0,0,0-2.966-25.369H708.0984a4.3608,4.3608,0,0,0-4.283,4.283" transform="translate(-483.4079 -370.6332)"/><path d="M661.6455,552.4946v21.414h25.697V548.2117h-21.416a4.36,4.36,0,0,0-4.281,4.2829" transform="translate(-483.4079 -370.6332)"/><path d="M661.6455,590.3809v118.936a137.2782,137.2782,0,0,0,25.697-3.296v-115.64Z" transform="translate(-483.4079 -370.6332)"/><path d="M624.0869,590.3809a4.154,4.154,0,0,0-4.283,4.283v111.357a130.5,130.5,0,0,0,25.369,3.296V590.3809Z" transform="translate(-483.4079 -370.6332)"/><path d="M703.8154,573.9082h115.31a170.7079,170.7079,0,0,0,2.966-25.697H703.8154Z" transform="translate(-483.4079 -370.6332)"/><path d="M703.8154,702.0679a170.9139,170.9139,0,0,0,111.027-111.687H703.8154Z" transform="translate(-483.4079 -370.6332)"/><path d="M934.4521,487.0627v48.33H919.777v-83.159h58.6991a24.4585,24.4585,0,0,1,0,48.917h-9.195l34.242,34.242h-20.742Zm0-20.154v19.567h44.024a9.7835,9.7835,0,1,0,0-19.567Z" transform="translate(-483.4079 -370.6332)"/><polygon points="607.579 81.6 607.579 96.275 539.095 96.275 539.095 115.842 607.579 115.842 607.579 130.517 539.095 130.517 539.095 150.084 607.579 150.084 607.579 164.759 524.42 164.759 524.42 81.6 607.579 81.6"/><path d="M1115.7394,520.7175l-8.463,14.675h-16.974l41.139-71.224,8.463-14.674,8.463,14.674,41.1389,71.224h-16.974l-8.463-14.675Zm39.867-14.675-15.702-27.198-15.702,27.198Z" transform="translate(-483.4079 -370.6332)"/><polygon points="705.413 81.6 720.088 81.6 720.088 150.084 788.572 150.084 788.572 164.759 705.413 164.759 705.413 81.6"/><rect x="793.4641" y="81.6008" width="14.675" height="83.159"/><polygon points="861.949 96.275 861.949 164.759 847.273 164.759 847.273 96.275 813.031 96.275 813.031 81.6 896.19 81.6 896.19 96.275 861.949 96.275"/><polygon points="949.999 125.919 949.999 164.759 935.324 164.759 935.324 125.919 896.875 81.6 916.295 81.6 942.662 111.978 969.028 81.6 988.448 81.6 949.999 125.919"/><path d="M1002.9355,587.53v4.892h-14.674V587.53a9.7734,9.7734,0,0,0-9.7851-9.784H944.2355a9.77,9.77,0,0,0-9.783,9.784v34.241a9.77,9.77,0,0,0,9.783,9.784h34.2409a9.7734,9.7734,0,0,0,9.7851-9.784V616.88h14.674v4.891a24.4663,24.4663,0,0,1-24.4591,24.459H944.2355a24.468,24.468,0,0,1-24.459-24.459V587.53a24.4678,24.4678,0,0,1,24.459-24.4589h34.2409a24.4661,24.4661,0,0,1,24.4591,24.4589" transform="translate(-483.4079 -370.6332)"/><path d="M1027.6886,631.5559l-8.463,14.675h-16.974l41.139-71.224,8.463-14.6749,8.4631,14.6749,41.1389,71.224h-16.974l-8.463-14.675Zm39.8671-14.676-15.7021-27.197-15.702,27.197Z" transform="translate(-483.4079 -370.6332)"/><path d="M1115.4453,597.9v48.33H1100.77v-83.159h58.7a24.4585,24.4585,0,0,1,0,48.917h-9.1959l34.2419,34.242h-20.7409Zm0-20.154v19.567H1159.47a9.7835,9.7835,0,1,0,0-19.567Z" transform="translate(-483.4079 -370.6332)"/><path d="M1271.9805,621.7717a24.4663,24.4663,0,0,1-24.459,24.459h-58.7v-83.159h58.7a24.4663,24.4663,0,0,1,24.459,24.459Zm-24.459,9.784a9.7713,9.7713,0,0,0,9.7839-9.784v-34.241a9.773,9.773,0,0,0-9.7839-9.785h-44.025v53.81Z" transform="translate(-483.4079 -370.6332)"/><path d="M1301.3311,646.2305a24.4664,24.4664,0,0,1-24.4592-24.459h14.6751a9.7713,9.7713,0,0,0,9.7841,9.784h34.2409a9.7835,9.7835,0,1,0,0-19.567h-34.2409a24.4585,24.4585,0,0,1,0-48.917h34.2409a24.4663,24.4663,0,0,1,24.459,24.459h-14.675a9.7715,9.7715,0,0,0-9.784-9.784h-34.2409a9.7835,9.7835,0,1,0,0,19.567h34.2409a24.4585,24.4585,0,0,1,0,48.917Z" transform="translate(-483.4079 -370.6332)"/></g></svg>