<svg id="Layer_1" data-name="Layer 1" xmlns="http://www.w3.org/2000/svg" xmlns:xlink="http://www.w3.org/1999/xlink" viewBox="0 0 363.71 288.56"><defs><style>.cls-1{fill:none;}.cls-2{clip-path:url(#clip-path);}.cls-3{fill:#fff;}</style><clipPath id="clip-path" transform="translate(-473.38 -287.01)"><rect class="cls-1" width="1080" height="1080"/></clipPath></defs><title>logo_vert_dark</title><g class="cls-2"><path class="cls-3" d="M640.51,391.45h10.83v-11A10.84,10.84,0,0,1,662,369.79h11V359a10.62,10.62,0,0,1,10.67-10.66h54.84a87.09,87.09,0,1,0-108.67,109V402.12a10.62,10.62,0,0,1,10.66-10.67" transform="translate(-473.38 -287.01)"/><path class="cls-3" d="M681.47,359v10.84h60.78a82.92,82.92,0,0,0-1.53-13h-57a2.25,2.25,0,0,0-2.21,2.2" transform="translate(-473.38 -287.01)"/><path class="cls-3" d="M659.81,380.45v11H673v-13.2H662a2.24,2.24,0,0,0-2.2,2.2" transform="translate(-473.38 -287.01)"/><path class="cls-3" d="M659.81,399.92V461a70.19,70.19,0,0,0,13.2-1.7V399.92Z" transform="translate(-473.38 -287.01)"/><path class="cls-3" d="M640.51,399.92a2.14,2.14,0,0,0-2.2,2.2v57.21a66.71,66.71,0,0,0,13,1.7V399.92Z" transform="translate(-473.38 -287.01)"/><path class="cls-3" d="M681.47,391.45h59.25a87.26,87.26,0,0,0,1.53-13.2H681.47Z" transform="translate(-473.38 -287.01)"/><path class="cls-3" d="M681.47,457.3a87.79,87.79,0,0,0,57-57.38h-57Z" transform="translate(-473.38 -287.01)"/><polygon class="cls-3" points="64.47 217.26 64.47 287.62 51.06 287.62 51.06 257.27 13.42 257.27 13.42 287.62 0 287.62 0 217.26 13.42 217.26 13.42 246.28 51.06 246.28 51.06 217.26 64.47 217.26"/><path class="cls-3" d="M586.34,523.38v51.25H573.86l-.28-7.33a18.3,18.3,0,0,1-15.6,8.27c-10.53,0-17.67-6.36-17.67-15.88,0-9.87,8.66-16.34,21.77-16.34a61.81,61.81,0,0,1,11.31,1.13V533.56H543.55V523.38Zm-13,29.88a48.42,48.42,0,0,0-9.67-1.06c-6,0-10,2.85-10,7.22,0,4.17,2.73,6.94,8,6.94,6,0,11.62-4.76,11.7-13.1" transform="translate(-473.38 -287.01)"/><path class="cls-3" d="M622.06,522.44l-.85,11.86c-10.65,0-17.67,5.15-17.67,12.87v27.46H590.59V523.38H603l.2,6.87c4.09-5.08,10.57-7.81,18.83-7.81" transform="translate(-473.38 -287.01)"/><path class="cls-3" d="M675,549.24c0,15.8-10.76,26.33-24.57,26.33-7.88,0-13.57-3.2-17.16-8.62l-.31,7.68H620.54V500.49h12.91v30.3c3.67-5.23,9.29-8.35,17-8.35,13.81,0,24.57,10.73,24.57,26.8m-13.42-.2c0-9.32-5.69-15.56-14-15.56-8.5,0-14.12,6.24-14.12,15.49s5.62,15.48,14.12,15.48c8.35,0,14-6.16,14-15.41" transform="translate(-473.38 -287.01)"/><path class="cls-3" d="M724.14,553.61H687.08c.94,7.25,4.76,11.82,12.25,11.82a15.93,15.93,0,0,0,12.56-6.09l10,5c-4.53,6.83-12.64,11.2-22.32,11.2-15.67,0-26.09-10.46-26.09-26.21,0-16.19,10.1-26.91,25.47-26.91s25.59,10.25,25.59,25.74a39.1,39.1,0,0,1-.39,5.42m-37.06-8.74H711c-.93-7.8-5.07-12.25-12-12.25s-10.84,4.45-11.86,12.25" transform="translate(-473.38 -287.01)"/><path class="cls-3" d="M757,522.44l-.78,11.86c-10.69,0-17.71,5.15-17.71,12.87v27.46h-13V523.38H738l.16,6.87c4.13-5.08,10.53-7.81,18.8-7.81" transform="translate(-473.38 -287.01)"/><path class="cls-3" d="M748.55,567.1a8.47,8.47,0,1,1,8.51,8.47,8.52,8.52,0,0,1-8.51-8.47" transform="translate(-473.38 -287.01)"/><path class="cls-3" d="M766.57,507.43a7.69,7.69,0,1,1,15.37,0,7.69,7.69,0,0,1-15.37,0m1.25,15.95h12.95v51.25H767.82Z" transform="translate(-473.38 -287.01)"/><path class="cls-3" d="M782.17,549c0-15.88,11.08-26.53,27.54-26.53,16.3,0,27.38,10.65,27.38,26.53s-11.08,26.6-27.38,26.6c-16.46,0-27.54-10.65-27.54-26.6m41.5,0c0-9.33-5.61-15.49-14-15.49-8.5,0-14.12,6.16-14.12,15.49s5.62,15.48,14.12,15.48c8.35,0,14-6.16,14-15.48" transform="translate(-473.38 -287.01)"/></g></svg>