<svg id="Layer_1" data-name="Layer 1" xmlns="http://www.w3.org/2000/svg" xmlns:xlink="http://www.w3.org/1999/xlink" viewBox="0 0 594 174.02"><defs><style>.cls-1{fill:none;}.cls-2{clip-path:url(#clip-path);}.cls-3{fill:#fff;}</style><clipPath id="clip-path" transform="translate(-242.63 -453.21)"><rect class="cls-1" width="1080" height="1080"/></clipPath></defs><title>logo_horz_dark</title><g class="cls-2"><path class="cls-3" d="M314.91,557.66h10.83v-11A10.84,10.84,0,0,1,336.41,536h11V525.16a10.62,10.62,0,0,1,10.67-10.67h54.84a87.09,87.09,0,1,0-108.67,109V568.32a10.62,10.62,0,0,1,10.66-10.66" transform="translate(-242.63 -453.21)"/><path class="cls-3" d="M355.88,525.16V536h60.77a82.66,82.66,0,0,0-1.53-13h-57a2.23,2.23,0,0,0-2.2,2.2" transform="translate(-242.63 -453.21)"/><path class="cls-3" d="M334.21,546.66v11h13.2V544.45h-11a2.24,2.24,0,0,0-2.2,2.21" transform="translate(-242.63 -453.21)"/><path class="cls-3" d="M334.21,566.12v61.11a71,71,0,0,0,13.2-1.69V566.12Z" transform="translate(-242.63 -453.21)"/><path class="cls-3" d="M314.91,566.12a2.14,2.14,0,0,0-2.2,2.2v57.22a67.47,67.47,0,0,0,13,1.69V566.12Z" transform="translate(-242.63 -453.21)"/><path class="cls-3" d="M355.88,557.66h59.24a87.25,87.25,0,0,0,1.53-13.21H355.88Z" transform="translate(-242.63 -453.21)"/><path class="cls-3" d="M355.88,623.51a87.84,87.84,0,0,0,57-57.39h-57Z" transform="translate(-242.63 -453.21)"/><polygon class="cls-3" points="294.77 51.05 294.77 121.42 281.35 121.42 281.35 91.07 243.71 91.07 243.71 121.42 230.29 121.42 230.29 51.05 243.71 51.05 243.71 80.07 281.35 80.07 281.35 51.05 294.77 51.05"/><path class="cls-3" d="M585.88,523.38v51.25H573.4l-.28-7.33a18.3,18.3,0,0,1-15.6,8.27c-10.53,0-17.67-6.36-17.67-15.88,0-9.87,8.66-16.34,21.77-16.34a61.81,61.81,0,0,1,11.31,1.13V533.56H543.09V523.38Zm-13,29.88a48.44,48.44,0,0,0-9.68-1.06c-6,0-10,2.85-10,7.22,0,4.17,2.73,6.94,8,6.94,6,0,11.62-4.76,11.7-13.1" transform="translate(-242.63 -453.21)"/><path class="cls-3" d="M621.6,522.44l-.85,11.86c-10.65,0-17.67,5.15-17.67,12.87v27.46h-13V523.38h12.44l.2,6.87c4.09-5.08,10.56-7.81,18.83-7.81" transform="translate(-242.63 -453.21)"/><path class="cls-3" d="M674.57,549.24c0,15.8-10.76,26.33-24.57,26.33-7.88,0-13.58-3.2-17.16-8.62l-.32,7.68H620.08V500.49H633v30.3c3.67-5.23,9.29-8.35,17-8.35,13.81,0,24.57,10.73,24.57,26.8m-13.42-.2c0-9.32-5.69-15.56-14-15.56S633,539.72,633,549s5.62,15.48,14.12,15.48,14-6.16,14-15.41" transform="translate(-242.63 -453.21)"/><path class="cls-3" d="M723.68,553.61H686.62c.94,7.25,4.76,11.82,12.25,11.82a15.93,15.93,0,0,0,12.56-6.09l10,5c-4.52,6.83-12.63,11.2-22.31,11.2-15.68,0-26.09-10.46-26.09-26.21,0-16.19,10.1-26.91,25.47-26.91s25.59,10.25,25.59,25.74a39.1,39.1,0,0,1-.39,5.42m-37.06-8.74h23.87c-.93-7.8-5.07-12.25-12-12.25s-10.84,4.45-11.86,12.25" transform="translate(-242.63 -453.21)"/><path class="cls-3" d="M756.52,522.44l-.78,11.86c-10.69,0-17.71,5.15-17.71,12.87v27.46H725.08V523.38h12.48l.16,6.87c4.13-5.08,10.53-7.81,18.8-7.81" transform="translate(-242.63 -453.21)"/><path class="cls-3" d="M748.09,567.1a8.47,8.47,0,1,1,8.5,8.47,8.51,8.51,0,0,1-8.5-8.47" transform="translate(-242.63 -453.21)"/><path class="cls-3" d="M766.11,507.43a7.69,7.69,0,1,1,15.37,0,7.69,7.69,0,0,1-15.37,0m1.25,15.95h12.95v51.25H767.36Z" transform="translate(-242.63 -453.21)"/><path class="cls-3" d="M781.71,549c0-15.88,11.08-26.53,27.54-26.53,16.3,0,27.38,10.65,27.38,26.53s-11.08,26.6-27.38,26.6c-16.46,0-27.54-10.65-27.54-26.6m41.5,0c0-9.33-5.61-15.49-14-15.49s-14.12,6.16-14.12,15.49,5.62,15.48,14.12,15.48,14-6.16,14-15.48" transform="translate(-242.63 -453.21)"/></g></svg>