<svg xmlns="http://www.w3.org/2000/svg" xmlns:xlink="http://www.w3.org/1999/xlink" width="1500.6644" height="338.6837" viewBox="0 0 1500.6644 338.6837"><defs><style>.a,.e{fill:none;}.b{clip-path:url(#a);}.c{opacity:0.4;}.d{clip-path:url(#c);}.e{stroke:#000;stroke-miterlimit:10;stroke-width:3px;}</style><clipPath id="a" transform="translate(-138.4079 -370.6332)"><rect class="a" width="1920" height="1080"/></clipPath><clipPath id="c" transform="translate(-138.4079 -370.6332)"><rect class="a" x="1299.22" y="494.704" width="339.78" height="102.666"/></clipPath></defs><title>Final_logos</title><g class="b"><g class="b"><path d="M279.0869,573.9082h21.086V552.4943a21.0985,21.0985,0,0,1,20.754-20.755h21.416v-21.086a20.67,20.67,0,0,1,20.756-20.7561h106.744a169.2622,169.2622,0,0,0-161.764-119.264c-93.566,0-169.671,75.775-169.671,169.342a169.5452,169.5452,0,0,0,119.923,162.093V594.6642a20.67,20.67,0,0,1,20.756-20.756" transform="translate(-138.4079 -370.6332)"/><path d="M358.8154,510.6528v21.086h118.276a161.8783,161.8783,0,0,0-2.965-25.369H363.0984a4.3608,4.3608,0,0,0-4.283,4.283" transform="translate(-138.4079 -370.6332)"/><path d="M316.6455,552.4946v21.414h25.697V548.2117h-21.416a4.36,4.36,0,0,0-4.281,4.2829" transform="translate(-138.4079 -370.6332)"/><path d="M316.6455,590.3809v118.936a137.2782,137.2782,0,0,0,25.697-3.296v-115.64Z" transform="translate(-138.4079 -370.6332)"/><path d="M279.0869,590.3809a4.1534,4.1534,0,0,0-4.283,4.283v111.357a130.49,130.49,0,0,0,25.369,3.296V590.3809Z" transform="translate(-138.4079 -370.6332)"/><path d="M358.8154,573.9082h115.311a170.835,170.835,0,0,0,2.965-25.697H358.8154Z" transform="translate(-138.4079 -370.6332)"/><path d="M358.8154,702.0679a170.9139,170.9139,0,0,0,111.027-111.687H358.8154Z" transform="translate(-138.4079 -370.6332)"/><path d="M589.4521,487.0627v48.33H574.777v-83.159h58.6991a24.4585,24.4585,0,0,1,0,48.917h-9.195l34.242,34.242h-20.742Zm0-20.154v19.567h44.024a9.7835,9.7835,0,1,0,0-19.567Z" transform="translate(-138.4079 -370.6332)"/><polygon points="607.579 81.6 607.579 96.275 539.095 96.275 539.095 115.842 607.579 115.842 607.579 130.517 539.095 130.517 539.095 150.084 607.579 150.084 607.579 164.759 524.42 164.759 524.42 81.6 607.579 81.6"/><path d="M770.7394,520.7175l-8.463,14.675h-16.974l41.1389-71.224,8.4631-14.674,8.463,14.674,41.1389,71.224h-16.974l-8.463-14.675Zm39.867-14.675-15.702-27.198-15.7021,27.198Z" transform="translate(-138.4079 -370.6332)"/><polygon points="705.413 81.6 720.088 81.6 720.088 150.084 788.572 150.084 788.572 164.759 705.413 164.759 705.413 81.6"/><rect x="793.4641" y="81.6008" width="14.675" height="83.159"/><polygon points="861.948 96.275 861.948 164.759 847.273 164.759 847.273 96.275 813.031 96.275 813.031 81.6 896.19 81.6 896.19 96.275 861.948 96.275"/><polygon points="949.999 125.919 949.999 164.759 935.324 164.759 935.324 125.919 896.875 81.6 916.295 81.6 942.662 111.978 969.028 81.6 988.448 81.6 949.999 125.919"/><path d="M657.9355,587.53v4.892h-14.674V587.53a9.7734,9.7734,0,0,0-9.7851-9.784H599.2355a9.77,9.77,0,0,0-9.783,9.784v34.241a9.77,9.77,0,0,0,9.783,9.784h34.2409a9.7734,9.7734,0,0,0,9.7851-9.784V616.88h14.674v4.891a24.4663,24.4663,0,0,1-24.4591,24.459H599.2355a24.4663,24.4663,0,0,1-24.458-24.459V587.53a24.4661,24.4661,0,0,1,24.458-24.4589h34.2409A24.4661,24.4661,0,0,1,657.9355,587.53" transform="translate(-138.4079 -370.6332)"/><path d="M682.6887,631.5559l-8.463,14.675h-16.974l41.139-71.224,8.463-14.6749,8.463,14.6749,41.139,71.224h-16.974l-8.463-14.675Zm39.867-14.676-15.702-27.197-15.702,27.197Z" transform="translate(-138.4079 -370.6332)"/><path d="M770.4453,597.9v48.33H755.77v-83.159h58.7a24.4585,24.4585,0,0,1,0,48.917h-9.196l34.242,34.242h-20.741Zm0-20.154v19.567H814.47a9.7835,9.7835,0,1,0,0-19.567Z" transform="translate(-138.4079 -370.6332)"/><path d="M926.9805,621.7717a24.4663,24.4663,0,0,1-24.459,24.459h-58.7v-83.159h58.7a24.4663,24.4663,0,0,1,24.459,24.459Zm-24.459,9.784a9.7715,9.7715,0,0,0,9.784-9.784v-34.241a9.7732,9.7732,0,0,0-9.784-9.785h-44.025v53.81Z" transform="translate(-138.4079 -370.6332)"/><path d="M956.3311,646.2305a24.4663,24.4663,0,0,1-24.459-24.459h14.675a9.7715,9.7715,0,0,0,9.784,9.784h34.241a9.7835,9.7835,0,1,0,0-19.567h-34.241a24.4585,24.4585,0,0,1,0-48.917h34.241a24.4663,24.4663,0,0,1,24.459,24.459h-14.675a9.7715,9.7715,0,0,0-9.784-9.784h-34.241a9.7835,9.7835,0,1,0,0,19.567h34.241a24.4585,24.4585,0,0,1,0,48.917Z" transform="translate(-138.4079 -370.6332)"/><g class="c"><g class="d"><path d="M1299.2236,503.3169h59.4014a24.7482,24.7482,0,0,1,17.6719,42.0757,24.7514,24.7514,0,0,1-17.6719,42.0762h-59.4014Zm14.8506,34.6509h44.5508a9.9,9.9,0,1,0,0-19.8h-44.5508Zm0,14.8506v19.8h44.5508a9.9,9.9,0,1,0,0-19.8Z" transform="translate(-138.4079 -370.6332)"/><path d="M1472.4766,503.3169v14.8506h-69.3008v19.8h69.3008v14.8506h-69.3008v19.8h69.3008v14.8506h-84.1514V503.3169Z" transform="translate(-138.4079 -370.6332)"/><path d="M1526.9287,518.1675v69.3013h-14.8506V518.1675h-34.65V503.3169h84.1514v14.8506Z" transform="translate(-138.4079 -370.6332)"/><path d="M1564.4248,572.6182l-8.5635,14.8506h-17.1777l41.6309-72.0738,8.5634-14.85,8.5635,14.85,41.6309,72.0738h-17.1768l-8.5635-14.8506Zm40.3428-14.85-15.89-27.523-15.89,27.523Z" transform="translate(-138.4079 -370.6332)"/></g></g><line class="e" x1="1068.0921" y1="67.3668" x2="1068.0921" y2="288.3668"/></g></g></svg>