<svg id="Layer_1" data-name="Layer 1" xmlns="http://www.w3.org/2000/svg" xmlns:xlink="http://www.w3.org/1999/xlink" viewBox="0 0 174.02 174.02"><defs><style>.cls-1{fill:none;}.cls-2{clip-path:url(#clip-path);}.cls-3{fill:#fff;}</style><clipPath id="clip-path" transform="translate(-242.63 -453.21)"><rect class="cls-1" width="1080" height="1080"/></clipPath></defs><title>logo_icon_dark</title><g class="cls-2"><path class="cls-3" d="M314.91,557.66h10.83v-11A10.84,10.84,0,0,1,336.41,536h11V525.16a10.62,10.62,0,0,1,10.67-10.67h54.84a87.09,87.09,0,1,0-108.67,109V568.32a10.62,10.62,0,0,1,10.66-10.66" transform="translate(-242.63 -453.21)"/><path class="cls-3" d="M355.88,525.16V536h60.77a82.66,82.66,0,0,0-1.53-13h-57a2.23,2.23,0,0,0-2.2,2.2" transform="translate(-242.63 -453.21)"/><path class="cls-3" d="M334.21,546.66v11h13.2V544.45h-11a2.24,2.24,0,0,0-2.2,2.21" transform="translate(-242.63 -453.21)"/><path class="cls-3" d="M334.21,566.12v61.11a71,71,0,0,0,13.2-1.69V566.12Z" transform="translate(-242.63 -453.21)"/><path class="cls-3" d="M314.91,566.12a2.14,2.14,0,0,0-2.2,2.2v57.22a67.47,67.47,0,0,0,13,1.69V566.12Z" transform="translate(-242.63 -453.21)"/><path class="cls-3" d="M355.88,557.66h59.24a87.25,87.25,0,0,0,1.53-13.21H355.88Z" transform="translate(-242.63 -453.21)"/><path class="cls-3" d="M355.88,623.51a87.84,87.84,0,0,0,57-57.39h-57Z" transform="translate(-242.63 -453.21)"/></g></svg>